{"glyphs":{":":{"x_min":0,"x_max":207,"ha":207,"o":"m 70 330 l 70 432 l 136 432 l 136 330 z m 70 0 l 70 101 l 136 101 l 136 0 z"},"$":{"x_min":0,"x_max":560,"ha":560,"o":"m 490 193 q 490 87 438 40 q 385 -8 283 -8 l 266 -8 l 251 -123 q 206 -120 206 -116 l 220 -5 l 77 10 l 84 61 q 161 51 227 47 l 262 315 q 211 325 180 336 q 148 348 122 368 q 72 405 72 497 q 72 670 281 670 q 298 670 308 669 l 324 795 l 369 795 l 352 666 l 475 652 l 471 601 q 403 609 345 614 l 313 363 q 408 343 449 308 q 490 272 490 193 z m 132 501 q 132 438 162 413 q 191 388 269 372 l 301 617 l 285 617 q 132 617 132 501 z m 281 45 q 430 45 430 178 q 430 243 402 267 q 375 291 306 306 l 273 45 z"},"?":{"x_min":0,"x_max":449,"ha":449,"o":"m 406 545 q 406 482 388 448 q 370 415 316 369 q 262 323 240 295 q 218 267 218 233 l 218 197 l 166 197 q 157 222 157 254 q 157 287 182 319 q 206 351 258 396 q 311 442 328 469 q 345 496 345 548 q 345 600 310 625 q 275 650 200 650 q 150 650 72 632 l 44 625 l 38 676 q 144 705 205 705 q 306 705 356 668 q 406 630 406 545 z m 158 1 l 158 101 l 224 101 l 224 1 z"},"<":{"x_min":0,"x_max":560,"ha":560,"o":"m 479 423 l 120 252 l 479 78 l 479 14 l 59 224 l 59 278 l 479 486 z"},"'":{"x_min":0,"x_max":200,"ha":200,"o":"m 72 477 l 69 695 l 132 695 l 126 477 z"},"=":{"x_min":0,"x_max":560,"ha":560,"o":"m 65 312 l 65 368 l 494 368 l 494 312 z m 65 133 l 65 189 l 494 189 l 494 133 z"},"a":{"x_min":0,"x_max":499,"ha":499,"o":"m 419 351 l 419 83 q 423 46 484 39 l 481 -9 q 404 -9 368 31 q 274 -10 180 -10 q 113 -10 78 28 q 43 67 43 138 q 43 210 78 244 q 114 279 190 287 l 360 304 l 360 351 q 360 407 336 432 q 311 456 270 456 q 206 456 104 444 l 73 441 l 70 489 q 180 510 262 510 q 345 510 382 471 q 419 432 419 351 z m 105 142 q 105 41 188 41 q 224 41 267 50 q 310 58 335 67 l 360 76 l 360 257 l 197 240 q 148 236 126 212 q 105 188 105 142 z"},"L":{"x_min":0,"x_max":480,"ha":480,"o":"m 467 0 l 87 0 l 87 695 l 149 695 l 149 56 l 467 56 z"},"3":{"x_min":0,"x_max":560,"ha":560,"o":"m 75 645 q 169 670 274 670 q 380 670 428 630 q 475 590 475 501 q 475 402 383 356 l 371 350 q 432 331 462 297 q 492 263 492 186 q 492 87 440 38 q 389 -10 280 -10 q 186 -10 94 10 l 64 16 l 70 68 q 177 46 275 46 q 428 46 428 183 q 428 311 283 318 l 149 318 l 149 372 l 282 372 q 327 372 369 407 q 411 442 411 502 q 411 562 378 588 q 346 615 267 615 q 188 615 106 599 l 81 594 z"},";":{"x_min":0,"x_max":241,"ha":241,"o":"m 96 99 l 165 99 l 103 -123 l 53 -123 z m 92 330 l 92 432 l 158 432 l 158 330 z"},"J":{"x_min":0,"x_max":285,"ha":285,"o":"m 201 695 l 201 89 q 201 33 192 0 q 182 -32 156 -48 q 131 -64 102 -68 q 73 -72 18 -72 l 18 -17 q 61 -17 80 -14 q 99 -12 116 0 q 132 12 136 35 q 140 58 140 102 l 140 695 z"},"V":{"x_min":0,"x_max":577,"ha":577,"o":"m 487 695 l 550 695 l 364 0 l 213 0 l 26 695 l 90 695 l 259 55 l 318 55 z"},"\"":{"x_min":0,"x_max":364,"ha":364,"o":"m 291 477 l 236 477 l 233 695 l 295 695 z m 127 477 l 73 477 l 69 695 l 131 695 z"},"7":{"x_min":0,"x_max":560,"ha":560,"o":"m 79 604 l 79 660 l 486 660 l 486 572 l 227 -10 l 168 10 l 423 578 l 423 604 z"},"S":{"x_min":0,"x_max":541,"ha":541,"o":"m 275 651 q 114 651 114 528 q 114 456 150 431 q 187 406 294 385 q 400 364 446 327 q 491 290 491 203 q 491 91 436 42 q 380 -8 273 -8 q 195 -8 92 6 l 56 11 l 63 64 q 200 47 275 47 q 350 47 389 84 q 428 120 428 190 q 428 261 394 286 q 359 312 284 326 q 208 340 173 352 q 138 363 108 384 q 77 406 64 440 q 51 473 51 524 q 51 706 271 706 q 337 706 443 692 l 476 687 l 471 634 q 333 651 275 651 z"},"}":{"x_min":0,"x_max":350,"ha":350,"o":"m 166 53 l 159 170 q 159 233 181 264 q 203 294 263 312 q 203 330 182 360 q 160 389 160 453 l 167 574 q 167 636 140 666 q 113 697 41 701 l 42 753 q 141 749 183 708 q 225 668 225 577 l 218 449 q 218 403 242 376 q 267 349 324 336 l 324 286 q 267 270 242 243 q 218 216 218 172 l 225 49 q 225 -41 184 -82 q 142 -123 43 -127 l 41 -74 q 113 -70 140 -40 q 166 -9 166 53 z"},"Z":{"x_min":0,"x_max":537,"ha":537,"o":"m 43 639 l 43 695 l 493 695 l 493 612 l 112 76 l 112 55 l 493 55 l 493 -1 l 43 -1 l 43 81 l 424 617 l 424 639 z"},"x":{"x_min":0,"x_max":446,"ha":446,"o":"m 24 500 l 91 500 l 223 294 l 355 500 l 422 500 l 259 251 l 421 0 l 355 0 l 223 205 l 91 0 l 24 0 l 185 250 z"},")":{"x_min":0,"x_max":252,"ha":252,"o":"m 123 -65 l 98 -125 l 40 -125 q 75 -39 105 89 q 135 217 135 302 q 135 386 112 498 q 88 610 64 680 l 40 750 l 98 750 q 109 723 126 678 q 143 632 171 513 q 199 394 199 301 q 199 208 174 102 q 148 -5 123 -65 z"},"&":{"x_min":0,"x_max":685,"ha":685,"o":"m 321 362 l 485 199 q 495 225 504 278 q 514 331 516 370 l 575 369 q 562 239 530 160 l 663 33 l 626 -8 l 501 111 q 434 -10 284 -10 q 153 -10 98 44 q 44 99 44 196 q 44 293 80 336 q 117 380 202 406 q 168 445 158 476 q 147 506 147 553 q 147 619 190 658 q 234 698 315 698 q 396 698 438 658 q 479 619 479 549 q 479 479 443 438 q 407 398 321 362 z m 281 45 q 408 45 459 148 l 238 367 q 164 346 134 311 q 104 276 104 202 q 104 45 281 45 z m 207 545 q 207 476 252 431 l 283 399 q 359 429 388 460 q 418 490 418 546 q 418 646 312 646 q 207 646 207 545 z"},"_":{"x_min":0,"x_max":635,"ha":635,"o":"m 103 -96 l 531 -96 l 531 -150 l 103 -150 z"},"v":{"x_min":0,"x_max":477,"ha":477,"o":"m 27 500 l 93 500 l 218 52 l 258 52 l 388 500 l 450 500 l 304 0 l 173 0 z"},"(":{"x_min":0,"x_max":252,"ha":252,"o":"m 190 -60 l 213 -125 l 155 -125 q 144 -101 127 -59 q 110 -17 82 96 q 54 208 54 284 q 54 360 64 428 q 75 496 90 550 q 119 660 144 724 l 155 750 l 213 750 q 179 659 148 522 q 118 386 118 302 q 118 217 142 110 q 166 4 190 -60 z"},"C":{"x_min":0,"x_max":544,"ha":544,"o":"m 502 11 q 399 -10 326 -10 q 253 -10 208 6 q 164 21 136 49 q 108 77 92 122 q 62 204 62 345 q 62 571 134 644 q 193 705 314 705 q 397 705 502 684 l 499 630 q 395 649 332 649 q 269 649 234 636 q 200 622 178 600 q 157 577 146 537 q 126 469 126 367 q 126 265 133 214 q 140 164 160 123 q 180 82 219 64 q 258 46 327 46 q 396 46 499 65 z"},"W":{"x_min":0,"x_max":874,"ha":874,"o":"m 33 695 l 96 695 l 222 55 l 255 55 l 401 687 l 474 687 l 619 55 l 652 55 l 778 695 l 841 695 l 698 0 l 574 0 l 437 610 l 300 0 l 176 0 z"},"A":{"x_min":0,"x_max":594,"ha":594,"o":"m 25 0 l 225 695 l 370 695 l 569 0 l 508 0 l 452 192 l 142 192 l 87 0 z m 270 641 l 157 247 l 437 247 l 324 641 z"},"f":{"x_min":0,"x_max":324,"ha":324,"o":"m 155 447 l 155 0 l 95 0 l 95 447 l 30 447 l 30 500 l 95 500 l 95 551 q 95 657 124 694 q 153 732 227 732 l 324 727 l 324 676 q 265 678 236 678 q 189 678 172 652 q 155 626 155 550 l 155 500 l 306 500 l 306 447 z"},"Q":{"x_min":0,"x_max":662,"ha":662,"o":"m 331 -10 q 177 -10 118 75 q 60 160 60 344 q 60 527 119 616 q 178 705 331 705 q 484 705 544 616 q 603 528 603 344 q 603 213 576 136 q 550 59 486 23 l 571 -115 l 512 -143 l 425 1 q 386 -10 331 -10 z m 331 649 q 207 649 164 569 q 141 528 132 475 q 124 422 124 344 q 124 185 166 116 q 208 46 332 46 q 455 46 497 114 q 539 181 539 341 q 539 501 495 575 q 451 649 331 649 z"},"w":{"x_min":0,"x_max":760,"ha":760,"o":"m 33 500 l 94 500 l 204 52 l 218 52 l 348 490 l 411 490 l 541 52 l 556 52 l 666 500 l 727 500 l 602 0 l 498 0 l 380 412 l 261 0 l 158 0 z"},"-":{"x_min":0,"x_max":445,"ha":445,"o":"m 71 249 l 71 305 l 375 305 l 375 249 z"},"E":{"x_min":0,"x_max":552,"ha":552,"o":"m 87 0 l 87 695 l 504 695 l 504 639 l 149 639 l 149 381 l 444 381 l 444 326 l 149 326 l 149 55 l 504 55 l 504 0 z"},"s":{"x_min":0,"x_max":464,"ha":464,"o":"m 226 455 q 108 455 108 370 q 108 331 134 315 q 160 299 252 284 q 343 268 380 241 q 418 214 418 138 q 418 61 369 26 q 320 -10 225 -10 q 170 -10 83 4 l 54 8 l 58 61 q 170 44 230 44 q 290 44 324 65 q 357 86 357 136 q 357 186 330 202 q 302 219 212 233 q 121 247 84 273 q 47 299 47 371 q 47 443 98 476 q 149 509 224 509 q 284 509 374 496 l 401 492 l 399 439 q 292 455 226 455 z"},">":{"x_min":0,"x_max":560,"ha":560,"o":"m 439 252 l 80 423 l 80 486 l 500 278 l 500 224 l 80 14 l 80 78 z"},"l":{"x_min":0,"x_max":221,"ha":221,"o":"m 81 0 l 81 722 l 140 722 l 140 0 z"},"8":{"x_min":0,"x_max":560,"ha":560,"o":"m 516 501 q 516 439 488 404 q 460 370 396 346 q 460 322 493 284 q 526 247 526 179 q 526 -10 278 -10 q 168 -10 100 32 q 32 73 32 168 q 32 241 62 278 q 92 315 154 346 q 97 372 70 406 q 43 441 43 502 q 43 586 105 628 q 167 670 278 670 q 389 670 452 628 q 516 585 516 501 z m 278 47 q 364 47 412 78 q 461 108 461 176 q 461 244 428 272 q 394 299 329 316 l 219 316 q 159 300 129 268 q 99 236 99 177 q 99 47 278 47 z m 450 495 q 450 614 280 614 q 109 614 109 496 q 109 446 136 418 q 162 389 219 370 l 329 370 q 390 387 420 416 q 450 446 450 495 z"},"\\":{"x_min":0,"x_max":421,"ha":421,"o":"m 390 14 l 335 -9 l 30 681 l 84 705 z"},"e":{"x_min":0,"x_max":504,"ha":504,"o":"m 406 50 l 436 53 l 438 4 q 325 -10 247 -10 q 139 -9 96 54 q 53 117 53 248 q 53 510 259 510 q 358 510 407 454 q 456 397 456 273 l 454 225 l 114 225 q 114 133 146 88 q 177 44 254 44 q 330 44 406 50 z m 114 275 l 396 275 q 396 374 364 416 q 331 458 260 458 q 188 458 151 414 q 114 371 114 275 z"},"b":{"x_min":0,"x_max":521,"ha":521,"o":"m 290 510 q 390 510 429 452 q 468 394 468 252 q 468 109 418 50 q 369 -10 234 -10 q 178 -10 100 -2 l 74 0 l 74 722 l 134 722 l 134 473 q 212 510 290 510 z m 134 50 q 204 44 246 44 q 289 44 323 56 q 357 68 376 96 q 394 125 400 162 q 406 198 406 258 q 406 364 380 410 q 355 456 285 456 q 251 456 213 448 q 175 439 154 430 l 134 422 z"},"%":{"x_min":0,"x_max":560,"ha":560,"o":"m 162 -3 l 360 676 l 402 663 l 204 -15 z m 246 533 q 246 463 218 428 q 189 393 139 393 q 89 393 60 428 q 32 463 32 534 q 32 670 139 670 q 246 670 246 533 z m 83 534 q 83 437 139 437 q 170 437 183 460 q 196 484 196 532 q 196 581 183 604 q 170 626 140 626 q 109 626 96 604 q 83 581 83 534 z m 314 131 q 314 267 422 267 q 529 267 529 130 q 529 60 500 25 q 471 -10 421 -10 q 371 -10 342 25 q 314 60 314 131 z m 365 131 q 365 34 422 34 q 478 34 478 130 q 478 178 465 200 q 452 223 422 223 q 391 223 378 201 q 365 179 365 131 z"},"m":{"x_min":0,"x_max":835,"ha":835,"o":"m 134 0 l 75 0 l 75 500 l 134 500 l 134 463 q 210 510 296 510 q 382 510 418 457 q 454 479 506 494 q 557 510 598 510 q 698 510 732 458 q 765 405 765 263 l 765 0 l 706 0 l 706 260 q 706 375 684 416 q 663 456 591 456 q 555 456 517 446 q 479 435 459 424 l 439 414 q 454 376 454 260 l 454 0 l 394 0 l 394 258 q 394 375 372 416 q 351 456 280 456 q 245 456 208 446 q 172 435 153 424 l 134 414 z"},"#":{"x_min":0,"x_max":560,"ha":560,"o":"m 533 180 l 419 180 l 419 0 l 363 0 l 363 180 l 196 180 l 196 0 l 140 0 l 140 180 l 26 180 l 26 232 l 140 232 l 140 433 l 26 433 l 26 485 l 140 485 l 140 667 l 196 667 l 196 485 l 363 485 l 363 667 l 419 667 l 419 485 l 533 485 l 533 433 l 419 433 l 419 232 l 533 232 z m 363 232 l 363 433 l 196 433 l 196 232 z"},",":{"x_min":0,"x_max":213,"ha":213,"o":"m 38 -123 l 82 99 l 149 99 l 88 -123 z"},"n":{"x_min":0,"x_max":533,"ha":533,"o":"m 134 0 l 75 0 l 75 500 l 134 500 l 134 463 q 218 510 297 510 q 397 510 430 457 q 464 404 464 263 l 464 0 l 404 0 l 404 260 q 404 375 382 416 q 360 456 288 456 q 253 456 214 446 q 176 435 155 424 l 134 414 z"},"h":{"x_min":0,"x_max":533,"ha":533,"o":"m 134 0 l 75 0 l 75 722 l 134 722 l 134 471 q 218 510 296 510 q 396 510 430 457 q 463 404 463 263 l 463 0 l 403 0 l 403 260 q 403 375 382 416 q 360 456 288 456 q 253 456 214 448 q 176 439 155 430 l 134 422 z"},"z":{"x_min":0,"x_max":455,"ha":455,"o":"m 42 446 l 42 500 l 413 500 l 413 446 l 116 54 l 413 54 l 413 0 l 42 0 l 42 54 l 339 446 z"},"B":{"x_min":0,"x_max":617,"ha":617,"o":"m 87 695 l 334 695 q 539 695 539 520 q 539 397 447 358 q 562 322 562 193 q 562 88 508 44 q 453 0 349 0 l 87 0 z m 342 327 l 149 327 l 149 55 l 348 55 q 421 55 460 86 q 499 117 499 195 q 499 327 342 327 z m 332 640 l 149 640 l 149 381 l 341 381 q 411 381 444 414 q 476 448 476 514 q 476 580 440 610 q 405 640 332 640 z"},"K":{"x_min":0,"x_max":563,"ha":563,"o":"m 149 0 l 87 0 l 87 695 l 149 695 l 149 367 l 269 370 l 462 695 l 533 695 l 323 346 l 546 0 l 472 0 l 270 314 l 149 312 z"},"R":{"x_min":0,"x_max":615,"ha":615,"o":"m 149 274 l 149 0 l 87 0 l 87 695 l 342 695 q 451 695 504 646 q 558 596 558 489 q 558 322 424 286 l 567 0 l 498 0 l 361 274 z m 494 488 q 494 566 457 603 q 420 640 342 640 l 149 640 l 149 329 l 342 329 q 494 329 494 488 z"},"T":{"x_min":0,"x_max":526,"ha":526,"o":"m 13 639 l 13 695 l 513 695 l 513 639 l 295 639 l 295 0 l 233 0 l 233 639 z"},"P":{"x_min":0,"x_max":593,"ha":593,"o":"m 341 242 l 149 242 l 149 0 l 87 0 l 87 695 l 341 695 q 452 695 504 641 q 557 587 557 475 q 557 242 341 242 z m 149 297 l 341 297 q 493 297 493 475 q 493 560 457 600 q 421 640 341 640 l 149 640 z"},"|":{"x_min":0,"x_max":221,"ha":221,"o":"m 80 -225 l 80 722 l 140 722 l 140 -225 z"},"t":{"x_min":0,"x_max":347,"ha":347,"o":"m 328 447 l 161 447 l 161 200 q 161 103 175 73 q 189 43 241 43 l 333 50 l 337 -1 q 271 -11 236 -11 q 160 -11 130 26 q 101 64 101 170 l 101 447 l 27 447 l 27 500 l 101 500 l 101 657 l 161 657 l 161 500 l 328 500 z"},"M":{"x_min":0,"x_max":835,"ha":835,"o":"m 87 0 l 87 695 l 203 695 l 418 87 l 632 695 l 748 695 l 748 0 l 686 0 l 686 631 l 672 631 l 454 23 l 381 23 l 163 631 l 149 631 l 149 0 z"},"j":{"x_min":0,"x_max":209,"ha":209,"o":"m 75 10 l 75 500 l 135 500 l 135 9 q 135 -79 102 -125 q 70 -171 -29 -221 l -53 -173 q 28 -127 52 -95 q 75 -63 75 10 z m 75 625 l 75 700 l 135 700 l 135 625 z"},"i":{"x_min":0,"x_max":209,"ha":209,"o":"m 75 0 l 75 500 l 134 500 l 134 0 z m 75 625 l 75 700 l 134 700 l 134 625 z"},"y":{"x_min":0,"x_max":478,"ha":478,"o":"m 27 500 l 88 500 l 221 52 l 257 52 l 391 500 l 452 500 l 236 -225 l 176 -225 l 243 0 l 174 0 z"},"@":{"x_min":0,"x_max":977,"ha":977,"o":"m 930 305 l 930 290 q 930 69 864 20 q 840 2 817 -3 q 794 -8 763 -8 q 732 -8 710 -2 q 688 5 676 14 q 653 33 646 54 q 605 30 552 12 q 500 -7 469 -7 q 438 -7 417 -3 q 396 1 372 16 q 347 31 330 58 q 292 119 292 249 q 292 379 338 443 q 383 507 497 507 q 546 507 600 487 l 619 480 l 619 497 l 679 497 l 679 302 q 679 123 692 84 q 696 70 706 58 q 716 47 728 45 q 741 43 762 43 q 784 43 798 46 q 812 50 827 64 q 842 77 850 103 q 868 167 868 290 l 868 306 q 868 497 784 582 q 700 668 502 668 q 304 668 210 573 q 116 478 116 256 q 116 34 206 -57 q 297 -148 504 -148 l 647 -138 l 650 -192 q 554 -202 504 -202 q 388 -202 308 -180 q 228 -158 169 -106 q 54 -5 54 250 q 54 504 166 612 q 279 721 504 721 q 728 721 829 620 q 930 518 930 305 z m 629 98 q 625 114 622 180 q 619 247 619 287 l 619 430 q 554 453 505 453 q 416 453 384 403 q 352 353 352 243 q 352 120 390 80 q 423 47 475 47 q 527 47 629 98 z"},".":{"x_min":0,"x_max":206,"ha":206,"o":"m 70 0 l 70 101 l 136 101 l 136 0 z"},"p":{"x_min":0,"x_max":523,"ha":523,"o":"m 75 -225 l 75 500 l 134 500 l 134 462 q 212 510 298 510 q 385 510 428 449 q 470 388 470 250 q 470 113 420 52 q 370 -10 254 -10 q 192 -10 134 3 l 134 -225 z m 286 456 q 253 456 215 445 q 177 434 156 422 l 134 411 l 134 55 q 202 43 252 43 q 338 43 373 92 q 408 140 408 252 q 408 363 378 410 q 347 456 286 456 z"},"X":{"x_min":0,"x_max":555,"ha":555,"o":"m 91 695 l 279 388 l 466 695 l 534 695 l 318 343 l 534 0 l 464 0 l 278 300 l 89 0 l 21 0 l 239 342 l 21 695 z"},"*":{"x_min":0,"x_max":419,"ha":419,"o":"m 369 514 l 235 514 l 276 387 l 234 374 l 192 502 l 84 423 l 58 458 l 167 537 l 59 616 l 86 652 l 194 573 l 235 700 l 278 686 l 237 558 l 369 558 z"},"Y":{"x_min":0,"x_max":534,"ha":534,"o":"m 298 0 l 236 0 l 236 294 l 13 695 l 82 695 l 267 358 l 451 695 l 521 695 l 298 294 z"},"c":{"x_min":0,"x_max":433,"ha":433,"o":"m 261 510 q 306 510 368 500 l 391 497 l 388 446 q 309 456 271 456 q 182 456 149 412 q 116 369 116 252 q 116 136 146 90 q 176 44 271 44 l 390 53 l 392 2 q 303 -10 260 -10 q 141 -10 98 49 q 54 108 54 252 q 54 396 102 453 q 149 510 261 510 z"},"!":{"x_min":0,"x_max":239,"ha":239,"o":"m 87 0 l 87 100 l 153 100 l 153 0 z m 91 223 l 88 695 l 151 695 l 147 223 z"},"/":{"x_min":0,"x_max":398,"ha":398,"o":"m 32 11 l 312 706 l 366 685 l 87 -9 z"},"[":{"x_min":0,"x_max":322,"ha":322,"o":"m 281 749 l 281 695 l 142 695 l 142 -69 l 281 -69 l 281 -123 l 81 -123 l 81 749 z"},"6":{"x_min":0,"x_max":560,"ha":560,"o":"m 478 604 q 391 614 304 614 q 216 614 167 550 q 118 487 118 368 l 144 378 q 229 410 293 410 q 513 410 513 208 q 513 104 454 47 q 395 -10 285 -10 q 54 -10 54 334 q 54 506 120 588 q 187 670 307 670 q 375 670 458 658 l 484 655 z m 289 355 q 253 355 210 344 q 167 334 142 323 l 117 312 q 120 46 285 46 q 365 46 407 88 q 449 129 449 206 q 449 355 289 355 z"},"r":{"x_min":0,"x_max":339,"ha":339,"o":"m 75 0 l 75 500 l 134 500 l 134 428 q 171 454 224 478 q 278 502 323 510 l 323 450 q 280 441 233 422 q 186 404 160 390 l 134 375 l 134 0 z"},"2":{"x_min":0,"x_max":560,"ha":560,"o":"m 491 0 l 70 0 l 70 52 l 276 270 q 326 323 348 350 q 371 376 390 414 q 408 452 408 491 q 408 558 370 586 q 333 614 255 614 q 189 614 108 596 l 81 590 l 76 643 q 170 670 270 670 q 369 670 420 628 q 472 587 472 496 q 472 427 441 376 q 410 325 337 252 l 145 54 l 491 54 z"},"{":{"x_min":0,"x_max":350,"ha":350,"o":"m 183 574 l 190 453 q 190 389 168 360 q 147 330 87 312 q 147 294 169 264 q 191 233 191 170 l 184 53 q 184 -9 210 -40 q 237 -70 309 -74 l 307 -127 q 208 -123 166 -82 q 125 -41 125 49 l 132 172 q 132 216 108 243 q 83 270 26 286 l 26 336 q 83 349 108 376 q 132 403 132 449 l 125 577 q 125 668 167 708 q 209 749 308 753 l 309 701 q 237 697 210 666 q 183 636 183 574 z"},"9":{"x_min":0,"x_max":560,"ha":560,"o":"m 76 57 q 163 46 254 46 q 439 46 441 292 l 412 282 q 321 252 258 252 q 44 252 44 451 q 44 551 106 610 q 167 670 270 670 q 389 670 447 580 q 505 489 505 316 q 505 143 440 66 q 375 -10 247 -10 q 172 -10 96 2 l 70 6 z m 262 307 q 294 307 339 317 q 384 327 413 337 l 442 347 q 437 614 270 614 q 195 614 152 570 q 108 526 108 451 q 108 307 262 307 z"}," ":{"x_min":0,"x_max":220,"ha":220,"o":""},"I":{"x_min":0,"x_max":236,"ha":236,"o":"m 87 0 l 87 695 l 149 695 l 149 0 z"},"H":{"x_min":0,"x_max":675,"ha":675,"o":"m 526 0 l 526 321 l 149 321 l 149 0 l 87 0 l 87 695 l 149 695 l 149 376 l 526 376 l 526 695 l 587 695 l 587 0 z"},"4":{"x_min":0,"x_max":560,"ha":560,"o":"m 370 0 l 370 134 l 40 134 l 40 182 l 234 660 l 302 660 l 107 189 l 370 189 l 370 400 l 432 400 l 432 189 l 521 189 l 521 134 l 432 134 l 432 0 z"},"~":{"x_min":0,"x_max":560,"ha":560,"o":"m 382 201 q 352 201 277 234 q 202 267 184 267 q 150 267 96 230 l 79 218 l 68 269 q 131 323 183 323 q 212 323 286 290 q 361 257 380 257 q 414 257 466 293 l 484 305 l 494 255 q 434 201 382 201 z"},"D":{"x_min":0,"x_max":646,"ha":646,"o":"m 340 0 l 87 0 l 87 695 l 340 695 q 587 695 587 357 q 587 0 340 0 z m 523 357 q 523 639 340 639 l 149 639 l 149 55 l 340 55 q 523 55 523 357 z"},"^":{"x_min":0,"x_max":560,"ha":560,"o":"m 431 320 l 278 600 l 132 320 l 67 320 l 250 660 l 306 660 l 496 320 z"},"0":{"x_min":0,"x_max":560,"ha":560,"o":"m 454 598 q 516 522 516 330 q 516 137 456 64 q 397 -10 279 -10 q 161 -10 102 62 q 43 135 43 318 q 43 453 72 532 q 101 611 150 640 q 200 670 270 670 q 339 670 381 654 q 423 637 454 598 z m 377 590 q 341 615 280 615 q 218 615 182 591 q 107 540 107 317 q 107 162 149 104 q 191 46 280 46 q 338 46 374 68 q 452 116 452 318 q 452 538 377 590 z"},"F":{"x_min":0,"x_max":525,"ha":525,"o":"m 87 0 l 87 695 l 497 695 l 497 639 l 149 639 l 149 352 l 445 352 l 445 297 l 149 297 l 149 0 z"},"`":{"x_min":0,"x_max":228,"ha":228,"o":"m 25 737 l 232 640 l 213 598 l 3 685 z"},"k":{"x_min":0,"x_max":470,"ha":470,"o":"m 134 0 l 75 0 l 75 722 l 134 722 l 134 292 l 219 294 l 373 500 l 442 500 l 271 271 l 450 0 l 380 0 l 220 241 l 134 239 z"},"u":{"x_min":0,"x_max":525,"ha":525,"o":"m 391 500 l 450 500 l 450 0 l 391 0 l 391 37 q 314 -10 237 -10 q 135 -10 102 42 q 70 94 70 239 l 70 500 l 129 500 l 129 240 q 129 124 150 84 q 172 44 244 44 q 279 44 316 54 q 353 65 372 76 l 391 86 z"},"]":{"x_min":0,"x_max":322,"ha":322,"o":"m 41 695 l 41 749 l 241 749 l 241 -123 l 41 -123 l 41 -69 l 180 -69 l 180 695 z"},"U":{"x_min":0,"x_max":642,"ha":642,"o":"m 144 204 q 144 46 317 46 q 407 46 452 83 q 497 120 497 204 l 497 695 l 559 695 l 559 204 q 559 91 498 40 q 437 -10 320 -10 q 202 -10 142 40 q 83 91 83 204 l 83 695 l 144 695 z"},"N":{"x_min":0,"x_max":672,"ha":672,"o":"m 87 0 l 87 695 l 209 695 l 500 55 l 523 55 l 523 695 l 584 695 l 584 0 l 464 0 l 171 639 l 149 639 l 149 0 z"},"+":{"x_min":0,"x_max":560,"ha":560,"o":"m 57 223 l 57 279 l 250 279 l 250 480 l 307 480 l 307 279 l 503 279 l 503 223 l 307 223 l 307 20 l 250 20 l 250 223 z"},"G":{"x_min":0,"x_max":617,"ha":617,"o":"m 360 296 l 360 351 l 549 351 l 549 15 q 520 9 447 0 q 374 -10 326 -10 q 176 -10 118 78 q 60 166 60 345 q 60 434 72 497 q 84 560 114 609 q 171 705 325 705 q 419 705 516 686 l 549 679 l 546 626 q 421 649 330 649 q 209 649 166 576 q 124 504 124 346 q 124 188 166 117 q 209 46 329 46 q 400 46 488 62 l 488 296 z"},"q":{"x_min":0,"x_max":521,"ha":521,"o":"m 238 -10 q 138 -10 96 50 q 53 110 53 249 q 53 388 104 449 q 156 510 286 510 l 446 500 l 446 -225 l 387 -225 l 387 25 q 316 -10 238 -10 z m 287 457 q 186 457 150 408 q 114 358 114 249 q 114 140 143 92 q 172 44 243 44 q 277 44 313 52 q 349 60 368 68 l 387 77 l 387 451 q 319 457 287 457 z"},"d":{"x_min":0,"x_max":523,"ha":523,"o":"m 449 722 l 449 0 l 389 0 l 389 37 q 310 -10 229 -10 q 192 -10 165 -2 q 138 7 110 32 q 53 83 53 232 q 53 380 101 445 q 149 510 263 510 q 307 510 389 497 l 389 722 z m 368 76 l 389 87 l 389 445 q 309 457 265 457 q 180 457 148 405 q 115 353 115 244 q 115 116 154 77 q 173 58 192 51 q 210 44 240 44 q 269 44 308 55 q 346 66 368 76 z"},"1":{"x_min":0,"x_max":560,"ha":560,"o":"m 381 660 l 381 0 l 320 0 l 320 592 l 144 474 l 115 522 l 323 660 z"},"5":{"x_min":0,"x_max":560,"ha":560,"o":"m 473 660 l 473 603 l 146 603 l 128 370 q 208 414 292 414 q 502 414 502 220 q 502 108 444 50 q 386 -8 282 -8 q 197 -8 98 12 l 66 19 l 74 70 q 187 47 269 47 q 351 47 394 91 q 438 135 438 214 q 438 294 398 326 q 358 359 286 359 q 248 359 207 348 q 166 336 144 324 l 121 313 l 75 321 l 94 660 z"}}}
